<svg width="19" height="19" viewBox="0 0 19 19" fill="none" xmlns="http://www.w3.org/2000/svg">
<path d="M16.6675 9.14673C16.6675 4.99322 13.3002 1.6262 9.14673 1.62598C4.99309 1.62598 1.62598 4.99309 1.62598 9.14673C1.6262 13.3002 4.99322 16.6675 9.14673 16.6675C13.3 16.6673 16.6673 13.3 16.6675 9.14673ZM11.0718 6.07178C11.389 5.75454 11.9031 5.75468 12.2205 6.07178C12.5378 6.38908 12.5378 6.90316 12.2205 7.22046L10.2942 9.14551L12.2205 11.0718C12.5378 11.3891 12.5378 11.9032 12.2205 12.2205C11.9032 12.5378 11.3891 12.5378 11.0718 12.2205L9.14551 10.2942L7.22046 12.2205C6.90316 12.5378 6.38908 12.5378 6.07178 12.2205C5.75468 11.9031 5.75454 11.389 6.07178 11.0718L7.99683 9.14551L6.07178 7.22046C5.75468 6.90314 5.75454 6.38901 6.07178 6.07178C6.38901 5.75454 6.90314 5.75468 7.22046 6.07178L9.14551 7.99683L11.0718 6.07178ZM18.2922 9.14673C18.292 14.1975 14.1975 18.292 9.14673 18.2922C4.09576 18.2922 0.000219994 14.1976 0 9.14673C0 4.09562 4.09562 0 9.14673 0C14.1976 0.000219999 18.2922 4.09576 18.2922 9.14673Z" fill="#EC221F"/>
</svg>
