<svg width="50" height="50" viewBox="0 0 50 50" fill="none" xmlns="http://www.w3.org/2000/svg">
<path d="M25.827 7.92572L24.631 0H7.08405C4.44183 0 2.34375 2.15271 2.34375 4.79462V37.9758C2.34375 40.6177 4.44183 42.7267 7.08405 42.7267H23.7289L35.7205 24.5703V11.6223L25.827 7.92572Z" fill="#D6D6D6"/>
<path d="M24.6318 0.0107422L35.6887 11.6221H28.3284C26.2844 11.6221 24.6318 9.96954 24.6318 7.92548V0.0107422Z" fill="#A4AFB8"/>
<path d="M24.5039 17.1895C24.4753 17.2835 24.4376 17.3746 24.3914 17.4613L25.5023 18.5723L25.4789 18.5957H18.232L18.2086 18.5723L19.3195 17.4613C19.2733 17.3746 19.2356 17.2835 19.207 17.1895H17.6367V15.3145H19.207C19.2356 15.2204 19.2733 15.1293 19.3195 15.0426L18.2086 13.9316L19.5352 12.6051L20.6461 13.716C20.7328 13.6698 20.8239 13.6321 20.918 13.6035V12.0332H22.793V13.6035C22.887 13.6321 22.9781 13.6698 23.0648 13.716L24.1758 12.6051L25.5023 13.9316L24.3914 15.0426C24.4376 15.1293 24.4753 15.2204 24.5039 15.3145H26.0742V17.1895H24.5039Z" fill="#ED1C24"/>
<path d="M21.8555 17.6582C22.6321 17.6582 23.2617 17.0286 23.2617 16.252C23.2617 15.4753 22.6321 14.8457 21.8555 14.8457C21.0788 14.8457 20.4492 15.4753 20.4492 16.252C20.4492 17.0286 21.0788 17.6582 21.8555 17.6582Z" fill="#E6E7E8"/>
<path d="M10.1367 18.127H18.1055V30.7832H10.1367V18.127Z" fill="#C49A6C"/>
<path d="M18.1055 18.127H26.0742V30.7832H18.1055V18.127Z" fill="#A97C50"/>
<path d="M18.1055 29.8457V31.252L26.0742 30.7832V21.877C26.0742 23.9904 25.2347 26.0173 23.7402 27.5117C22.2458 29.0061 20.2189 29.8457 18.1055 29.8457Z" fill="#8B5E3C"/>
<path d="M14.3551 9.02344V12.5016L12.9489 13.4391L11.5426 12.5016V9.02344C10.9515 9.26261 10.4312 9.64855 10.0308 10.1448C9.63039 10.641 9.36313 11.2312 9.25427 11.8594C9.14541 12.4877 9.19856 13.1334 9.40868 13.7354C9.6188 14.3374 9.97896 14.8759 10.4551 15.3C10.6509 15.4741 10.8073 15.6878 10.914 15.9271C11.0207 16.1663 11.0752 16.4256 11.0739 16.6875V18.1266H14.8239V16.6875C14.8226 16.4256 14.8771 16.1663 14.9838 15.9271C15.0905 15.6878 15.2469 15.4741 15.4426 15.3C15.9188 14.8759 16.279 14.3374 16.4891 13.7354C16.6992 13.1334 16.7523 12.4877 16.6435 11.8594C16.5346 11.2312 16.2674 10.641 15.867 10.1448C15.4665 9.64855 14.9462 9.26261 14.3551 9.02344Z" fill="#FF9811"/>
<path d="M12.9492 18.127H11.0742H10.1367L8.26172 21.877H10.1367H16.2305L18.1055 18.127H14.8242H12.9492Z" fill="#A97C50"/>
<path d="M25.4789 18.127H18.232H18.1055L19.9805 21.877H26.0742H27.9492L26.0742 18.127H25.4789Z" fill="#8B5E3C"/>
<path d="M35.7852 24.574C41.9113 25.4332 46.624 30.6898 46.624 37.0528C46.624 44.0088 40.9824 49.6509 34.0265 49.6509C29.2444 49.6509 25.0748 46.9831 22.9503 43.0505C21.982 41.2622 21.4287 39.217 21.4287 37.0431C21.4287 30.0872 27.0706 24.4453 34.0265 24.4453C34.6195 24.4553 35.2022 24.495 35.7852 24.574Z" fill="#00B51B"/>
<path d="M38.2 37.8H34.8V41.2C34.8 41.6417 34.4417 42 34 42C33.5583 42 33.2 41.6417 33.2 41.2V37.8H29.8C29.3583 37.8 29 37.4417 29 37C29 36.5583 29.3583 36.2 29.8 36.2H33.2V32.8C33.2 32.3583 33.5583 32 34 32C34.4417 32 34.8 32.3583 34.8 32.8V36.2H38.2C38.6417 36.2 39 36.5583 39 37C39 37.4417 38.6417 37.8 38.2 37.8Z" fill="#FAFAFA"/>
</svg>
