<svg width="17" height="19" viewBox="0 0 17 19" fill="none" xmlns="http://www.w3.org/2000/svg">
<path d="M13.3337 4.9585H3.29224V15.813C3.29224 16.0395 3.38229 16.257 3.54248 16.4172C3.70265 16.5773 3.92029 16.6675 4.14673 16.6675H12.4792C12.7057 16.6675 12.9233 16.5773 13.0835 16.4172C13.2437 16.257 13.3337 16.0395 13.3337 15.813V4.9585ZM5.83374 13.313V8.31299C5.83374 7.86426 6.198 7.5 6.64673 7.5C7.09527 7.50022 7.4585 7.86439 7.4585 8.31299V13.313C7.4585 13.7616 7.09527 14.1258 6.64673 14.126C6.198 14.126 5.83374 13.7617 5.83374 13.313ZM9.16748 13.313V8.31299C9.16748 7.86439 9.5307 7.50022 9.97925 7.5C10.428 7.5 10.7922 7.86426 10.7922 8.31299V13.313C10.7922 13.7617 10.428 14.126 9.97925 14.126C9.5307 14.1258 9.16748 13.7616 9.16748 13.313ZM10.8337 2.47925C10.8336 2.25295 10.7435 2.03629 10.5835 1.87622C10.4233 1.71603 10.2058 1.62598 9.97925 1.62598H6.64673C6.42019 1.62598 6.20267 1.71603 6.04248 1.87622C5.88252 2.03629 5.79234 2.25295 5.79224 2.47925V3.33374H10.8337V2.47925ZM12.4585 3.33374H15.813C16.2617 3.33374 16.626 3.698 16.626 4.14673C16.6258 4.59527 16.2616 4.9585 15.813 4.9585H14.9585V15.813C14.9585 16.4705 14.6971 17.101 14.2322 17.5659C13.7673 18.0307 13.1367 18.2922 12.4792 18.2922H4.14673C3.48931 18.2922 2.85871 18.0307 2.3938 17.5659C1.92887 17.101 1.66748 16.4705 1.66748 15.813V4.9585H0.812988C0.364393 4.9585 0.000219804 4.59527 0 4.14673C0 3.698 0.364257 3.33374 0.812988 3.33374H4.16748V2.47925C4.16759 1.82188 4.42896 1.19116 4.8938 0.726318C5.35869 0.261639 5.9894 0 6.64673 0H9.97925C10.6366 0 11.2673 0.261639 11.7322 0.726318C12.197 1.19116 12.4584 1.82188 12.4585 2.47925V3.33374Z" fill="#EC221F"/>
</svg>
