<svg width="20" height="20" viewBox="0 0 20 20" fill="none" xmlns="http://www.w3.org/2000/svg">
<g clip-path="url(#clip0_1861_21038)">
<g clip-path="url(#clip1_1861_21038)">
<path d="M19.1557 4.54249C19.1324 4.39499 18.8957 3.06999 17.9357 2.10249C16.9716 1.15916 15.6416 0.925824 15.4932 0.902491C15.2957 0.869991 15.0941 0.911658 14.9249 1.01666C14.8266 1.07749 12.4632 2.55749 7.66491 7.32166C2.61241 12.3392 1.28742 14.3442 1.23325 14.4267C1.15742 14.5433 1.11158 14.6775 1.10075 14.8158L0.834915 18.2083C0.816582 18.4517 0.904082 18.69 1.07658 18.8625C1.23325 19.0192 1.44575 19.1067 1.66658 19.1067C1.68742 19.1067 1.70908 19.1067 1.73075 19.1042L5.14825 18.8408C5.28575 18.83 5.41825 18.7858 5.53408 18.7117C5.61741 18.6583 7.63658 17.3425 12.6882 12.3267C17.4874 7.56166 18.9782 5.21416 19.0399 5.11666C19.1466 4.94582 19.1882 4.74166 19.1566 4.54249H19.1557ZM11.5141 11.1442C7.40575 15.2233 5.35241 16.7942 4.79408 17.1967L2.57325 17.3683L2.74492 15.175C3.15491 14.615 4.73908 12.5758 8.83825 8.50499C10.1074 7.24499 11.2016 6.22083 12.1232 5.39749C12.1316 5.39916 12.1399 5.40082 12.1491 5.40249C12.1591 5.40416 13.1799 5.58082 13.8332 6.21916C14.4766 6.84832 14.6574 7.82749 14.6624 7.85166C14.6624 7.85499 14.6641 7.85749 14.6641 7.86083C13.8316 8.77999 12.7932 9.87416 11.5141 11.1442ZM15.9382 6.40749C15.7391 5.96249 15.4407 5.45916 14.9991 5.02749C14.5624 4.59999 14.0541 4.30999 13.6041 4.11666C14.5532 3.32499 15.1941 2.85332 15.5282 2.61916C15.8774 2.72249 16.4024 2.93332 16.7624 3.28582C17.1399 3.66582 17.3416 4.18666 17.4374 4.50999C17.1999 4.84332 16.7282 5.47582 15.9391 6.40833L15.9382 6.40749Z" fill="#3979E0"/>
</g>
</g>
<defs>
<clipPath id="clip0_1861_21038">
<rect width="20" height="20" fill="white"/>
</clipPath>
<clipPath id="clip1_1861_21038">
<rect width="20" height="20" fill="white"/>
</clipPath>
</defs>
</svg>
