<svg width="20" height="20" viewBox="0 0 20 20" fill="none" xmlns="http://www.w3.org/2000/svg">
<path d="M9.99925 4.01627C12.5923 4.01627 14.5862 5.49676 15.8909 6.88834C16.549 7.59039 17.0508 8.29063 17.3889 8.81412C17.5582 9.07632 17.6879 9.29586 17.7756 9.45181C17.8195 9.52984 17.8531 9.59268 17.8762 9.63638C17.8877 9.65809 17.8972 9.6749 17.9036 9.68716C17.9066 9.69307 17.9086 9.69821 17.9104 9.70181C17.9113 9.70364 17.9127 9.70551 17.9133 9.7067V9.70865H17.9143V9.70963C17.9942 9.86957 18.0044 10.0542 17.9446 10.2204L17.9143 10.2907L17.9133 10.2917V10.2936C17.9127 10.2948 17.9113 10.2958 17.9104 10.2975C17.9086 10.3011 17.9066 10.3062 17.9036 10.3122C17.8972 10.3245 17.8878 10.3421 17.8762 10.3639C17.8531 10.4076 17.8194 10.4696 17.7756 10.5475C17.6879 10.7035 17.5584 10.9238 17.3889 11.1862C17.0509 11.7096 16.5488 12.4091 15.8909 13.111C14.5862 14.5026 12.5923 15.9831 9.99925 15.9831C7.4064 15.9829 5.41319 14.5025 4.10863 13.111C3.4505 12.409 2.94768 11.7096 2.60961 11.1862C2.44015 10.9238 2.3116 10.7035 2.22386 10.5475C2.18005 10.4696 2.1464 10.4076 2.12328 10.3639C2.11171 10.3421 2.10226 10.3245 2.09593 10.3122C2.09283 10.3061 2.08994 10.3011 2.08812 10.2975L2.08519 10.2917V10.2907C1.99372 10.1077 1.99376 9.89259 2.08519 9.70963L2.66625 9.99966L2.08519 9.70865L2.08617 9.7067C2.08676 9.70552 2.0872 9.70362 2.08812 9.70181C2.08996 9.69818 2.09282 9.69321 2.09593 9.68716C2.10225 9.67488 2.1118 9.65807 2.12328 9.63638C2.14641 9.59268 2.17997 9.52984 2.22386 9.45181C2.31157 9.2959 2.44037 9.07617 2.60961 8.81412C2.9477 8.29061 3.4504 7.59045 4.10863 6.88834C5.41319 5.49686 7.40651 4.01639 9.99925 4.01627ZM9.99925 5.31705C7.92575 5.31717 6.2522 6.50297 5.05687 7.77798C4.46518 8.40914 4.00911 9.04274 3.7014 9.5192C3.57917 9.70846 3.4819 9.87244 3.40843 9.99966C3.48195 10.127 3.57897 10.2915 3.7014 10.4811C4.00914 10.9576 4.46514 11.5911 5.05687 12.2223C6.2522 13.4973 7.92575 14.6831 9.99925 14.6833C12.0727 14.6833 13.7463 13.4973 14.9416 12.2223C15.5332 11.5913 15.9894 10.9576 16.2971 10.4811C16.4194 10.2917 16.5166 10.127 16.5901 9.99966C16.5166 9.87245 16.4193 9.70838 16.2971 9.5192C15.9894 9.04272 15.5333 8.40913 14.9416 7.77798C13.7463 6.50296 12.0728 5.31705 9.99925 5.31705ZM11.3498 9.99966C11.3497 9.25423 10.7447 8.65005 9.99925 8.65005C9.25393 8.65023 8.64982 9.25434 8.64964 9.99966C8.64964 10.7451 9.25382 11.3501 9.99925 11.3503C10.7448 11.3503 11.3498 10.7452 11.3498 9.99966ZM12.6496 9.99966C12.6496 11.4632 11.4628 12.6501 9.99925 12.6501C8.53585 12.6499 7.34984 11.4631 7.34984 9.99966C7.35002 8.53637 8.53596 7.35043 9.99925 7.35025C11.4627 7.35025 12.6495 8.53626 12.6496 9.99966Z" fill="#3979E0"/>
</svg>
