<svg width="20" height="20" viewBox="0 0 20 20" fill="none" xmlns="http://www.w3.org/2000/svg">
<path d="M5.98963 2.72253C7.5678 1.85234 9.38597 1.51859 11.1703 1.77161C12.9465 2.02354 14.5935 2.84327 15.8651 4.10803L18.3541 6.45178V3.33288C18.3544 2.88435 18.7185 2.52112 19.1671 2.52112C19.6155 2.52139 19.9787 2.88451 19.9789 3.33288V8.33289C19.9789 8.78145 19.6156 9.1456 19.1671 9.14587H14.1671C13.7184 9.14587 13.3541 8.78162 13.3541 8.33289C13.3544 7.88435 13.7185 7.52112 14.1671 7.52112H17.1188L14.7518 5.29089C14.7459 5.28526 14.7393 5.27962 14.7335 5.2738C13.7086 4.24835 12.3775 3.5841 10.942 3.38049C9.50656 3.17698 8.04416 3.44582 6.77454 4.14587C5.5048 4.846 4.49622 5.9396 3.90223 7.26233C3.30842 8.58489 3.16088 10.0647 3.48109 11.4786C3.80139 12.8928 4.57239 14.1652 5.67835 15.1029C6.78427 16.0405 8.16526 16.5929 9.61268 16.6776C11.0601 16.7623 12.4955 16.3739 13.7033 15.5717C14.911 14.7693 15.8264 13.5965 16.3095 12.2294C16.459 11.8064 16.9228 11.5843 17.3458 11.7338C17.7686 11.8832 17.9905 12.3472 17.8414 12.7701C17.2411 14.4695 16.1041 15.9281 14.6029 16.9254C13.1017 17.9227 11.3167 18.4052 9.51746 18.2999C7.71837 18.1946 6.00193 17.5074 4.62733 16.3419C3.25272 15.1764 2.29473 13.5952 1.89661 11.8375C1.49854 10.0798 1.682 8.2399 2.42029 6.59582C3.15863 4.9519 4.41151 3.59271 5.98963 2.72253Z" fill="white"/>
</svg>
