<svg width="70" height="70" viewBox="0 0 70 70" fill="none" xmlns="http://www.w3.org/2000/svg">
<path d="M36.1578 11.096L34.4835 0H9.91766C6.21857 0 3.28125 3.01379 3.28125 6.71246V53.1661C3.28125 56.8647 6.21857 59.8174 9.91766 59.8174H33.2205L50.0087 34.3984V16.2712L36.1578 11.096Z" fill="#D6D6D6"/>
<path d="M34.4844 0.015625L49.9639 16.2715H39.6596C36.7979 16.2715 34.4844 13.9579 34.4844 11.0963V0.015625Z" fill="#A4AFB8"/>
<path d="M34.3055 24.0647C34.2655 24.1964 34.2127 24.3239 34.148 24.4453L35.7033 26.0006L35.6705 26.0334H25.5248L25.492 26.0006L27.0473 24.4453C26.9826 24.3239 26.9299 24.1964 26.8898 24.0647H24.6914V21.4397H26.8898C26.9299 21.308 26.9826 21.1805 27.0473 21.0591L25.492 19.5038L27.3492 17.6466L28.9045 19.2019C29.026 19.1371 29.1535 19.0844 29.2852 19.0444V16.8459H31.9102V19.0444C32.0418 19.0844 32.1693 19.1371 32.2908 19.2019L33.8461 17.6466L35.7033 19.5038L34.148 21.0591C34.2127 21.1805 34.2655 21.308 34.3055 21.4397H36.5039V24.0647H34.3055Z" fill="#ED1C24"/>
<path d="M30.5977 24.7209C31.685 24.7209 32.5664 23.8395 32.5664 22.7522C32.5664 21.6649 31.685 20.7834 30.5977 20.7834C29.5103 20.7834 28.6289 21.6649 28.6289 22.7522C28.6289 23.8395 29.5103 24.7209 30.5977 24.7209Z" fill="#E6E7E8"/>
<path d="M14.1914 25.3772H25.3477V43.0959H14.1914V25.3772Z" fill="#C49A6C"/>
<path d="M25.3477 25.3772H36.5039V43.0959H25.3477V25.3772Z" fill="#A97C50"/>
<path d="M25.3477 41.7834V43.7522L36.5039 43.0959V30.6272C36.5039 33.586 35.3285 36.4237 33.2363 38.5159C31.1441 40.6081 28.3065 41.7834 25.3477 41.7834Z" fill="#8B5E3C"/>
<path d="M20.0972 12.6328V17.5022L18.1284 18.8147L16.1597 17.5022V12.6328C15.3322 12.9677 14.6037 13.508 14.0431 14.2027C13.4825 14.8974 13.1084 15.7236 12.956 16.6032C12.8036 17.4828 12.878 18.3867 13.1722 19.2296C13.4663 20.0724 13.9706 20.8263 14.6372 21.42C14.9112 21.6637 15.1302 21.963 15.2796 22.2979C15.4289 22.6329 15.5052 22.9958 15.5034 23.3625V25.3772H20.7534V23.3625C20.7516 22.9958 20.8279 22.6329 20.9773 22.2979C21.1266 21.963 21.3456 21.6637 21.6197 21.42C22.2863 20.8263 22.7905 20.0724 23.0847 19.2296C23.3789 18.3867 23.4533 17.4828 23.3009 16.6032C23.1485 15.7236 22.7743 14.8974 22.2137 14.2027C21.6532 13.508 20.9247 12.9677 20.0972 12.6328Z" fill="#FF9811"/>
<path d="M18.1289 25.3772H15.5039H14.1914L11.5664 30.6272H14.1914H22.7227L25.3477 25.3772H20.7539H18.1289Z" fill="#A97C50"/>
<path d="M35.6705 25.3772H25.5248H25.3477L27.9727 30.6272H36.5039H39.1289L36.5039 25.3772H35.6705Z" fill="#8B5E3C"/>
<path d="M50.0991 33.5845C58.6756 34.7874 65.2734 42.1466 65.2734 51.0548C65.2734 60.7931 57.3752 68.6921 47.6369 68.6921C40.942 68.6921 35.1045 64.9571 32.1302 59.4516C30.7746 56.9479 30 54.0846 30 51.0412C30 41.3029 37.8986 33.4043 47.6369 33.4043C48.4671 33.4183 49.2829 33.4738 50.0991 33.5845Z" fill="#00B51B"/>
<path d="M54.9571 48.2288L46.4715 56.7142C46.2169 56.9687 45.8827 57.0969 45.5485 57.0969C45.2144 57.0969 44.8802 56.9687 44.6256 56.7142L40.3829 52.4715C39.8724 51.9611 39.8724 51.136 40.3829 50.6256C40.8933 50.115 41.7182 50.115 42.2288 50.6256L45.5485 53.9454L53.1112 46.3829C53.6216 45.8724 54.4465 45.8724 54.9571 46.3829C55.4674 46.8933 55.4674 47.7182 54.9571 48.2288Z" fill="#FAFAFA"/>
</svg>
